<?xml version="1.0" encoding="us-ascii" standalone="no"?><svg xmlns="http://www.w3.org/2000/svg" xmlns:xlink="http://www.w3.org/1999/xlink" contentStyleType="text/css" height="552px" preserveAspectRatio="none" style="width:640px;height:552px;background:#FFFFFF;" version="1.1" viewBox="0 0 640 552" width="640px" zoomAndPan="magnify"><defs/><g><rect fill="none" height="94.8906" style="stroke:#000000;stroke-width:1.5;" width="315.5" x="10" y="433.4766"/><line style="stroke:#181818;stroke-width:0.5;stroke-dasharray:5.0,5.0;" x1="41" x2="41" y1="82.6094" y2="545.3672"/><line style="stroke:#181818;stroke-width:0.5;stroke-dasharray:5.0,5.0;" x1="290.5" x2="290.5" y1="82.6094" y2="545.3672"/><line style="stroke:#181818;stroke-width:0.5;stroke-dasharray:5.0,5.0;" x1="559" x2="559" y1="82.6094" y2="545.3672"/><line style="stroke:#181818;stroke-width:0.5;stroke-dasharray:5.0,5.0;" x1="605" x2="605" y1="82.6094" y2="545.3672"/><text fill="#000000" font-family="sans-serif" font-size="14" lengthAdjust="spacing" textLength="36" x="20" y="79.5332">Client</text><ellipse cx="41" cy="13.5" fill="#E2E2F0" rx="8" ry="8" style="stroke:#181818;stroke-width:0.5;"/><path d="M41,21.5 L41,48.5 M28,29.5 L54,29.5 M41,48.5 L28,63.5 M41,48.5 L54,63.5 " fill="none" style="stroke:#181818;stroke-width:0.5;"/><text fill="#000000" font-family="sans-serif" font-size="14" lengthAdjust="spacing" textLength="42" x="267" y="79.5332">Server</text><path d="M270.5,37 L270.5,61 M270.5,49 L287.5,49 " fill="none" style="stroke:#181818;stroke-width:0.5;"/><ellipse cx="299.5" cy="49" fill="#E2E2F0" rx="12" ry="12" style="stroke:#181818;stroke-width:0.5;"/><text fill="#000000" font-family="sans-serif" font-size="14" lengthAdjust="spacing" textLength="17" x="547.5" y="79.5332">S3</text><path d="M541,29 C541,19 559,19 559,19 C559,19 577,19 577,29 L577,55 C577,65 559,65 559,65 C559,65 541,65 541,55 L541,29 " fill="#E2E2F0" style="stroke:#181818;stroke-width:1.5;"/><path d="M541,29 C541,39 559,39 559,39 C559,39 577,39 577,29 " fill="none" style="stroke:#181818;stroke-width:1.5;"/><text fill="#000000" font-family="sans-serif" font-size="14" lengthAdjust="spacing" textLength="19" x="592.5" y="79.5332">DB</text><path d="M587,29 C587,19 605,19 605,19 C605,19 623,19 623,29 L623,55 C623,65 605,65 605,65 C605,65 587,65 587,55 L587,29 " fill="#E2E2F0" style="stroke:#181818;stroke-width:1.5;"/><path d="M587,29 C587,39 605,39 605,39 C605,39 623,39 623,29 " fill="none" style="stroke:#181818;stroke-width:1.5;"/><polygon fill="#181818" points="279,110.9609,289,114.9609,279,118.9609" style="stroke:#181818;stroke-width:1.0;"/><line style="stroke:#181818;stroke-width:1.0;" x1="41" x2="285" y1="114.9609" y2="114.9609"/><text fill="#000000" font-family="sans-serif" font-size="13" lengthAdjust="spacing" textLength="142" x="95" y="110.1045">/api/user-profiles (POST)</text><polygon fill="#181818" points="593,141.3125,603,145.3125,593,149.3125" style="stroke:#181818;stroke-width:1.0;"/><line style="stroke:#181818;stroke-width:1.0;" x1="291" x2="599" y1="145.3125" y2="145.3125"/><text fill="#000000" font-family="sans-serif" font-size="13" lengthAdjust="spacing" textLength="107" x="394.5" y="140.4561">createUserProfile()</text><polygon fill="#181818" points="302,171.6641,292,175.6641,302,179.6641" style="stroke:#181818;stroke-width:1.0;"/><line style="stroke:#181818;stroke-width:1.0;stroke-dasharray:2.0,2.0;" x1="296" x2="604" y1="175.6641" y2="175.6641"/><text fill="#000000" font-family="sans-serif" font-size="13" lengthAdjust="spacing" textLength="53" x="421.5" y="170.8076">response</text><polygon fill="#181818" points="547,202.0156,557,206.0156,547,210.0156" style="stroke:#181818;stroke-width:1.0;"/><line style="stroke:#181818;stroke-width:1.0;" x1="291" x2="553" y1="206.0156" y2="206.0156"/><text fill="#000000" font-family="sans-serif" font-size="13" lengthAdjust="spacing" textLength="70" x="390" y="201.1592">presignPut()</text><polygon fill="#181818" points="302,232.3672,292,236.3672,302,240.3672" style="stroke:#181818;stroke-width:1.0;"/><line style="stroke:#181818;stroke-width:1.0;stroke-dasharray:2.0,2.0;" x1="296" x2="558" y1="236.3672" y2="236.3672"/><text fill="#000000" font-family="sans-serif" font-size="13" lengthAdjust="spacing" textLength="54" x="398" y="231.5107">uploadUrl</text><polygon fill="#181818" points="52,262.7188,42,266.7188,52,270.7188" style="stroke:#181818;stroke-width:1.0;"/><line style="stroke:#181818;stroke-width:1.0;stroke-dasharray:2.0,2.0;" x1="46" x2="290" y1="266.7188" y2="266.7188"/><text fill="#000000" font-family="sans-serif" font-size="13" lengthAdjust="spacing" textLength="137" x="97.5" y="261.8623">content_type, uploadUrl</text><polygon fill="#181818" points="547,293.0703,557,297.0703,547,301.0703" style="stroke:#181818;stroke-width:1.0;"/><line style="stroke:#181818;stroke-width:1.0;" x1="41" x2="553" y1="297.0703" y2="297.0703"/><text fill="#000000" font-family="sans-serif" font-size="13" lengthAdjust="spacing" textLength="74" x="263" y="292.2139">upload photo</text><polygon fill="#181818" points="279,323.4219,289,327.4219,279,331.4219" style="stroke:#181818;stroke-width:1.0;"/><line style="stroke:#181818;stroke-width:1.0;" x1="41" x2="285" y1="327.4219" y2="327.4219"/><text fill="#000000" font-family="sans-serif" font-size="13" lengthAdjust="spacing" textLength="226" x="53" y="322.5654">/api/user-profiles/confirm-avatar (POST)</text><polygon fill="#181818" points="547,353.7734,557,357.7734,547,361.7734" style="stroke:#181818;stroke-width:1.0;"/><line style="stroke:#181818;stroke-width:1.0;" x1="291" x2="553" y1="357.7734" y2="357.7734"/><text fill="#000000" font-family="sans-serif" font-size="13" lengthAdjust="spacing" textLength="244" x="303" y="352.917">head() // &#1087;&#1088;&#1086;&#1074;&#1077;&#1088;&#1082;&#1072; &#1095;&#1090;&#1086; &#1086;&#1073;&#1098;&#1077;&#1082;&#1090; &#1079;&#1072;&#1075;&#1088;&#1091;&#1079;&#1080;&#1083;&#1089;&#1103;</text><polygon fill="#181818" points="593,384.125,603,388.125,593,392.125" style="stroke:#181818;stroke-width:1.0;"/><line style="stroke:#181818;stroke-width:1.0;" x1="291" x2="599" y1="388.125" y2="388.125"/><text fill="#000000" font-family="sans-serif" font-size="13" lengthAdjust="spacing" textLength="21" x="437.5" y="383.2686">key</text><polygon fill="#181818" points="302,414.4766,292,418.4766,302,422.4766" style="stroke:#181818;stroke-width:1.0;"/><line style="stroke:#181818;stroke-width:1.0;stroke-dasharray:2.0,2.0;" x1="296" x2="604" y1="418.4766" y2="418.4766"/><text fill="#000000" font-family="sans-serif" font-size="13" lengthAdjust="spacing" textLength="53" x="421.5" y="413.6201">response</text><path d="M10,433.4766 L71,433.4766 L71,441.8281 L61,451.8281 L10,451.8281 L10,433.4766 " fill="#EEEEEE" style="stroke:#000000;stroke-width:1.5;"/><rect fill="none" height="94.8906" style="stroke:#000000;stroke-width:1.5;" width="315.5" x="10" y="433.4766"/><text fill="#000000" font-family="sans-serif" font-size="13" font-weight="bold" lengthAdjust="spacing" textLength="16" x="25" y="447.9717">alt</text><text fill="#000000" font-family="sans-serif" font-size="11" font-weight="bold" lengthAdjust="spacing" textLength="55" x="86" y="446.8955">[success]</text><polygon fill="#181818" points="52,470.1797,42,474.1797,52,478.1797" style="stroke:#181818;stroke-width:1.0;"/><line style="stroke:#181818;stroke-width:1.0;stroke-dasharray:2.0,2.0;" x1="46" x2="290" y1="474.1797" y2="474.1797"/><text fill="#000000" font-family="sans-serif" font-size="13" lengthAdjust="spacing" textLength="21" x="155.5" y="469.3232">200</text><line style="stroke:#000000;stroke-width:1.0;stroke-dasharray:2.0,2.0;" x1="10" x2="325.5" y1="483.1797" y2="483.1797"/><text fill="#000000" font-family="sans-serif" font-size="11" font-weight="bold" lengthAdjust="spacing" textLength="37" x="15" y="494.5986">[error]</text><polygon fill="#181818" points="52,516.3672,42,520.3672,52,524.3672" style="stroke:#181818;stroke-width:1.0;"/><line style="stroke:#181818;stroke-width:1.0;stroke-dasharray:2.0,2.0;" x1="46" x2="290" y1="520.3672" y2="520.3672"/><text fill="#000000" font-family="sans-serif" font-size="13" lengthAdjust="spacing" textLength="46" x="143" y="515.5107">4xx/5xx</text><!--SRC=[ZL6nJiCm4Dtz5JUs4b4g2ai794fNHANG6Rd9jOtgnC5sgcGhPK1YuLSAg0A1L7x1_YEk2j00HMAnptVlFT-zqzCupRZY2GIc50ZQg3WqUIAOtbRmCiSqn5FKce_nMCJZDC7KG4W7AiPuQAI24n7JcmrbdaPSbKHJCwf6tF0XrmX1UnltkenLUF2EFf0Ty7aM-xb6vMLAZcA16Xhzi-2yoIh41jlhTY1Ko0qE2DYlS8qcwtN1gqafr9bCDTQOGRi36UMf-tvkY1Aqlr7oJ4WU3PJuub2nQfA-b3HgQYvCcU5U3LeRelqf0Tb46lcl-NpI7SKgyVYCh56_nzseJf17ZIRuFjWtDxTh-s1NTB_O9RWRjx1heDozkxKh- -8MO9_iqZwwkRkcwDc-kYjtzyF0APP_6iQuCA3pCAHjCu0TNkotMWm5RH6Lacetvg0e_CEYO9X6xm00]--></g></svg>